<mxfile host="app.diagrams.net" agent="Mozilla/5.0 (Macintosh; Intel Mac OS X 10_15_7) AppleWebKit/605.1.15 (KHTML, like Gecko) Version/18.1.1 Safari/605.1.15" version="26.0.1">
  <diagram name="Page-1" id="MOOgLLSn0nfXvZkTdm57">
    <mxGraphModel grid="1" page="1" gridSize="10" guides="1" tooltips="1" connect="1" arrows="1" fold="1" pageScale="1" pageWidth="827" pageHeight="1169" math="0" shadow="0">
      <root>
        <mxCell id="0" />
        <mxCell id="1" parent="0" />
        <mxCell id="qZnn4g4UPXkhQW0s16VP-1" value="" style="rounded=0;orthogonalLoop=1;jettySize=auto;html=1;endArrow=halfCircle;endFill=0;endSize=6;strokeWidth=1;sketch=0;fillColor=#d5e8d4;strokeColor=#82b366;" edge="1" parent="1">
          <mxGeometry relative="1" as="geometry">
            <mxPoint x="240" y="139.71" as="sourcePoint" />
            <mxPoint x="40" y="139.85" as="targetPoint" />
          </mxGeometry>
        </mxCell>
        <mxCell id="qZnn4g4UPXkhQW0s16VP-2" value="Recommendation Interface" style="edgeLabel;html=1;align=center;verticalAlign=middle;resizable=0;points=[];" connectable="0" vertex="1" parent="qZnn4g4UPXkhQW0s16VP-1">
          <mxGeometry x="0.3774" relative="1" as="geometry">
            <mxPoint x="23" as="offset" />
          </mxGeometry>
        </mxCell>
        <mxCell id="qZnn4g4UPXkhQW0s16VP-3" value="&lt;b&gt;Recommendation Manager&lt;/b&gt;" style="shape=module;align=left;spacingLeft=20;align=center;verticalAlign=top;whiteSpace=wrap;html=1;fillColor=#d5e8d4;strokeColor=#82b366;" vertex="1" parent="1">
          <mxGeometry x="209" y="40" width="210" height="200" as="geometry" />
        </mxCell>
        <mxCell id="qZnn4g4UPXkhQW0s16VP-7" style="edgeStyle=orthogonalEdgeStyle;rounded=0;orthogonalLoop=1;jettySize=auto;html=1;exitX=1;exitY=0.25;exitDx=0;exitDy=0;entryX=0;entryY=0.5;entryDx=0;entryDy=0;endArrow=none;endFill=0;fillColor=#f5f5f5;strokeColor=#666666;" edge="1" parent="1" source="qZnn4g4UPXkhQW0s16VP-8">
          <mxGeometry relative="1" as="geometry">
            <Array as="points">
              <mxPoint x="399" y="162" />
              <mxPoint x="399" y="105" />
            </Array>
            <mxPoint x="409" y="105" as="targetPoint" />
          </mxGeometry>
        </mxCell>
        <mxCell id="qZnn4g4UPXkhQW0s16VP-8" value="Feedback&lt;div&gt;Submanager&lt;/div&gt;" style="shape=module;align=left;spacingLeft=20;align=center;verticalAlign=middle;whiteSpace=wrap;html=1;" vertex="1" parent="1">
          <mxGeometry x="259" y="150" width="120" height="50" as="geometry" />
        </mxCell>
        <mxCell id="qZnn4g4UPXkhQW0s16VP-9" style="edgeStyle=orthogonalEdgeStyle;rounded=0;orthogonalLoop=1;jettySize=auto;html=1;exitX=1;exitY=0.5;exitDx=0;exitDy=0;endArrow=none;endFill=0;fillColor=#f5f5f5;strokeColor=#666666;" edge="1" parent="1" source="qZnn4g4UPXkhQW0s16VP-11">
          <mxGeometry relative="1" as="geometry">
            <Array as="points" />
            <mxPoint x="429" y="105" as="targetPoint" />
          </mxGeometry>
        </mxCell>
        <mxCell id="qZnn4g4UPXkhQW0s16VP-21" style="edgeStyle=orthogonalEdgeStyle;rounded=0;orthogonalLoop=1;jettySize=auto;html=1;exitX=1;exitY=0.75;exitDx=0;exitDy=0;fillColor=#f8cecc;strokeColor=#b85450;endArrow=none;endFill=0;" edge="1" parent="1" source="qZnn4g4UPXkhQW0s16VP-11">
          <mxGeometry relative="1" as="geometry">
            <mxPoint x="430" y="175" as="targetPoint" />
            <Array as="points">
              <mxPoint x="390" y="118" />
              <mxPoint x="390" y="175" />
            </Array>
          </mxGeometry>
        </mxCell>
        <mxCell id="qZnn4g4UPXkhQW0s16VP-11" value="Match&lt;div&gt;Submanager&lt;/div&gt;" style="shape=module;align=left;spacingLeft=20;align=center;verticalAlign=middle;whiteSpace=wrap;html=1;" vertex="1" parent="1">
          <mxGeometry x="259" y="80" width="120" height="50" as="geometry" />
        </mxCell>
        <mxCell id="qZnn4g4UPXkhQW0s16VP-12" value="" style="ellipse;whiteSpace=wrap;html=1;align=center;aspect=fixed;fillColor=none;strokeColor=none;resizable=0;perimeter=centerPerimeter;rotatable=0;allowArrows=0;points=[];outlineConnect=1;" vertex="1" parent="1">
          <mxGeometry x="533" y="100" width="10" height="10" as="geometry" />
        </mxCell>
        <mxCell id="qZnn4g4UPXkhQW0s16VP-13" value="" style="ellipse;whiteSpace=wrap;html=1;align=center;aspect=fixed;fillColor=none;strokeColor=none;resizable=0;perimeter=centerPerimeter;rotatable=0;allowArrows=0;points=[];outlineConnect=1;" vertex="1" parent="1">
          <mxGeometry x="533" y="170" width="10" height="10" as="geometry" />
        </mxCell>
        <mxCell id="qZnn4g4UPXkhQW0s16VP-14" value="" style="rounded=0;orthogonalLoop=1;jettySize=auto;html=1;endArrow=oval;endFill=0;sketch=0;sourcePerimeterSpacing=0;targetPerimeterSpacing=0;endSize=10;exitX=1;exitY=0.862;exitDx=0;exitDy=0;exitPerimeter=0;fillColor=#f5f5f5;strokeColor=#666666;" edge="1" parent="1">
          <mxGeometry relative="1" as="geometry">
            <mxPoint x="429" y="105" as="sourcePoint" />
            <mxPoint x="569" y="105" as="targetPoint" />
          </mxGeometry>
        </mxCell>
        <mxCell id="qZnn4g4UPXkhQW0s16VP-15" value="Model Interface" style="edgeLabel;html=1;align=center;verticalAlign=middle;resizable=0;points=[];" connectable="0" vertex="1" parent="qZnn4g4UPXkhQW0s16VP-14">
          <mxGeometry x="-0.3425" relative="1" as="geometry">
            <mxPoint x="2" y="-1" as="offset" />
          </mxGeometry>
        </mxCell>
        <mxCell id="qZnn4g4UPXkhQW0s16VP-16" value="" style="rounded=0;orthogonalLoop=1;jettySize=auto;html=1;endArrow=oval;endFill=0;sketch=0;sourcePerimeterSpacing=0;targetPerimeterSpacing=0;endSize=10;exitX=1;exitY=0.862;exitDx=0;exitDy=0;exitPerimeter=0;fillColor=#f8cecc;strokeColor=#b85450;" edge="1" parent="1">
          <mxGeometry relative="1" as="geometry">
            <mxPoint x="429" y="175" as="sourcePoint" />
            <mxPoint x="569" y="175" as="targetPoint" />
          </mxGeometry>
        </mxCell>
        <mxCell id="qZnn4g4UPXkhQW0s16VP-17" value="Notification Interface" style="edgeLabel;html=1;align=center;verticalAlign=middle;resizable=0;points=[];" connectable="0" vertex="1" parent="qZnn4g4UPXkhQW0s16VP-16">
          <mxGeometry x="-0.3425" relative="1" as="geometry">
            <mxPoint x="14" y="-1" as="offset" />
          </mxGeometry>
        </mxCell>
        <mxCell id="qZnn4g4UPXkhQW0s16VP-18" style="edgeStyle=orthogonalEdgeStyle;rounded=0;orthogonalLoop=1;jettySize=auto;html=1;exitX=0;exitY=0.5;exitDx=10;exitDy=0;exitPerimeter=0;entryX=0.084;entryY=0.508;entryDx=0;entryDy=0;entryPerimeter=0;endArrow=none;endFill=0;fillColor=#d5e8d4;strokeColor=#82b366;" edge="1" parent="1" source="qZnn4g4UPXkhQW0s16VP-3" target="qZnn4g4UPXkhQW0s16VP-11">
          <mxGeometry relative="1" as="geometry">
            <Array as="points">
              <mxPoint x="240" y="140" />
              <mxPoint x="240" y="105" />
            </Array>
          </mxGeometry>
        </mxCell>
        <mxCell id="qZnn4g4UPXkhQW0s16VP-19" style="edgeStyle=orthogonalEdgeStyle;rounded=0;orthogonalLoop=1;jettySize=auto;html=1;exitX=0;exitY=0.5;exitDx=10;exitDy=0;exitPerimeter=0;entryX=0.082;entryY=0.499;entryDx=0;entryDy=0;entryPerimeter=0;endArrow=none;endFill=0;fillColor=#d5e8d4;strokeColor=#82b366;" edge="1" parent="1" source="qZnn4g4UPXkhQW0s16VP-3" target="qZnn4g4UPXkhQW0s16VP-8">
          <mxGeometry relative="1" as="geometry">
            <Array as="points">
              <mxPoint x="240" y="140" />
              <mxPoint x="240" y="175" />
            </Array>
          </mxGeometry>
        </mxCell>
      </root>
    </mxGraphModel>
  </diagram>
</mxfile>
